# xmcd
# 
# Track frame offsets:
#     187
#     19400
#     37847
#     48562
#     62015
#     80572
#     101647
#     129157
#     142327
#     155540
#     175985
#     204702
# 
# Disc length: 2911
# 
# Revision: 2
# Processed by: cddbd v1.5.2PL0 Copyright (c) Steve Scherf et al.
# Submitted via: fre:ac v1.0.17
# 
DISCID=a90b5d0c
DTITLE=Various Artist - CROSSFIRE - A Salute to Stevie Ray
DYEAR=1996
DGENRE=Blues
TTITLE0=Trevor Rabin - Tightrope
TTITLE1=Steve Stevens - Cold Shot
TTITLE2=Steve Morse - Travis Walk
TTITLE3=Albert Lee - Empty Arms
TTITLE4=John Sykes - Pride and Joy
TTITLE5=Scott Hill - Couldn't Stand The Weather
TTITLE6=Mark Kendall - Ain't Gone 'n' Give Up On Love
TTITLE7=Doug Aldrich - The House Is Rockin'
TTITLE8=Richie Kotzen - Honey Bee
TTITLE9=Walter Trout - Say What!
TTITLE10=Stanley Jordan - Riviera Paradise
TTITLE11=John Sykes - Love Struck Baby
EXTD=
EXTT0=
EXTT1=
EXTT2=
EXTT3=
EXTT4=
EXTT5=
EXTT6=
EXTT7=
EXTT8=
EXTT9=
EXTT10=
EXTT11=
PLAYORDER=
